<?xml version="1.0" encoding="UTF-8"?>
<svg width="33px" height="33px" viewBox="0 0 33 33" version="1.1" xmlns="http://www.w3.org/2000/svg" xmlns:xlink="http://www.w3.org/1999/xlink">
    <!-- Generator: Sketch 52.6 (67491) - http://www.bohemiancoding.com/sketch -->
    <title>icon-profile</title>
    <desc>Created with Sketch.</desc>
    <defs>
        <linearGradient x1="18.6155386%" y1="-31.9360323%" x2="81.5718671%" y2="77.5207579%" id="linearGradient-1">
            <stop stop-color="#000000" stop-opacity="0.1" offset="0%"></stop>
            <stop stop-color="#000000" stop-opacity="0" offset="100%"></stop>
        </linearGradient>
    </defs>
    <g id="onboarding-v3" stroke="none" stroke-width="1" fill="none" fill-rule="evenodd">
        <g id="profile-(simplified)" transform="translate(-1077.000000, -22.000000)">
            <g id="Group-2" transform="translate(657.000000, 22.000000)">
                <g id="icon-profile" transform="translate(420.000000, 0.000000)">
                    <g>
                        <path d="M16.6153846,0 C7.5810613,0 0.230769231,7.35029207 0.230769231,16.3846154 C0.230769231,25.4189387 7.5810613,32.7692308 16.6153846,32.7692308 C25.6497079,32.7692308 33,25.4189387 33,16.3846154 C33,7.35029207 25.6497079,0 16.6153846,0 Z" id="Path" fill="#2A3236" fill-rule="nonzero"></path>
                        <g id="icon" transform="translate(1.398305, 1.118644)" fill-rule="nonzero">
                            <path d="M15.2659713,0.265971317 C23.5370107,0.265971317 30.2659713,6.98425331 30.2659713,15.2421669 C30.2659713,18.529352 29.1871234,21.5626655 27.3818206,24.0352021 C27.224129,23.9327727 27.0682912,23.8393418 26.9101522,23.7579727 C24.1775567,22.3573387 19.9388056,20.6880271 15.2659713,20.6880271 C10.593137,20.6880271 6.35438596,22.3573387 3.62115121,23.7586747 C3.46345967,23.8397247 3.30781359,23.9329004 3.15018597,24.0352021 C1.34488314,21.5625379 0.265971317,18.529352 0.265971317,15.2421669 C0.265971317,6.98425331 6.99493193,0.265971317 15.2659713,0.265971317 Z" id="Path" fill="#FFFFFF"></path>
                            <path d="M15.2659392,30.2659713 C10.7606622,30.2659713 6.72195991,28.2469425 3.95827901,25.0689256 C4.03706886,25.0207021 4.11650085,24.9682598 4.19445593,24.92763 C6.80511627,23.5727622 10.8452313,21.958279 15.2659392,21.958279 C19.6866471,21.958279 23.7266979,23.5727622 26.3367161,24.9269809 C26.4150565,24.9678704 26.4946811,25.0203776 26.5736636,25.0688607 C23.8099185,28.2468127 19.7712162,30.2659713 15.2659392,30.2659713 Z" id="Path" fill="#1BA2E7"></path>
                            <circle id="Oval" fill="#303C42" cx="15.1505867" cy="11.2275098" r="8.19230769"></circle>
                            <path d="M21.4495298,28.8813559 C23.416581,27.9799308 25.161728,26.6722752 26.5736636,25.0614035 C26.4942507,25.0130366 26.4141922,24.9606553 26.3354249,24.9198639 C23.7111835,23.5688917 19.6490521,21.958279 15.2043183,21.958279 C14.9915175,21.958279 14.784592,21.97861 14.5736636,21.9857323 L21.4495298,28.8813559 Z" id="Path" fill="url(#linearGradient-1)"></path>
                            <circle id="Oval" fill="#1BA2E7" cx="15.1505867" cy="11.2275098" r="6.80769231"></circle>
                            <path d="M18.8065839,5.57366362 C19.0725691,6.29761097 19.2407206,7.06882744 19.2407206,7.88344268 C19.2407206,11.615166 16.1929738,14.6513034 12.4466974,14.6513034 C11.1042238,14.6513034 9.85939276,14.2491034 8.80443286,13.5771204 C9.75703687,16.1696894 12.2357436,18.0352021 15.1642557,18.0352021 C18.9104685,18.0352021 21.958279,14.9990646 21.958279,11.2673413 C21.9583427,8.87279509 20.69555,6.7770278 18.8065839,5.57366362 Z" id="Path" fill="#000000" opacity="0.1"></path>
                        </g>
                    </g>
                </g>
            </g>
        </g>
    </g>
</svg>