<?xml version="1.0" encoding="UTF-8"?>
<svg width="186px" height="58px" viewBox="0 0 186 58" version="1.1" xmlns="http://www.w3.org/2000/svg" xmlns:xlink="http://www.w3.org/1999/xlink">
    <!-- Generator: Sketch 52.6 (67491) - http://www.bohemiancoding.com/sketch -->
    <title>icon-download-ios</title>
    <desc>Created with Sketch.</desc>
    <g id="onboarding-v3" stroke="none" stroke-width="1" fill="none" fill-rule="evenodd">
        <g id="Signup" transform="translate(-874.000000, -847.000000)" fill-rule="nonzero">
            <g id="Group-13" transform="translate(841.000000, 175.000000)">
                <g id="Group-7" transform="translate(0.000000, 633.000000)">
                    <g id="Group" transform="translate(32.753731, 38.500000)">
                        <g id="icon-download-ios" transform="translate(0.246269, 0.500000)">
                            <path d="M180.643884,58 L5.36310105,58 C2.40284809,58 0,55.3981365 0,52.1860343 L0,5.8215557 C0,2.61097152 2.40284809,5.68434189e-14 5.36310105,5.68434189e-14 L180.642487,5.68434189e-14 C183.605534,5.68434189e-14 185.998603,2.61097152 185.998603,5.8215557 L186,52.1860343 C186,55.3981365 183.605534,58 180.643884,58 Z" id="Shape-Copy-2" fill="#000000"></path>
                            <g id="Group-Copy-2" transform="translate(57.962791, 25.104478)" fill="#FFFFFF">
                                <path d="M15.8540388,19.9704677 L12.6863616,19.9704677 L10.9511831,14.1896206 L4.91990342,14.1896206 L3.26702034,19.9704677 L0.183033424,19.9704677 L6.1585196,0.289855721 L9.84926107,0.289855721 L15.8540388,19.9704677 Z M10.4281189,11.7642973 L8.85892605,6.62527363 C8.69294033,6.10027985 8.38189144,4.86395647 7.92298973,2.91778234 L7.86719621,2.91778234 C7.68447242,3.75481468 7.3901616,4.99113806 6.98565856,6.62527363 L5.44436252,11.7642973 L10.4281189,11.7642973 Z" id="Shape"></path>
                                <path d="M31.2209696,12.7004129 C31.2209696,15.1139055 30.605846,17.0216294 29.3755988,18.4221057 C28.2736768,19.6687811 26.9053407,20.2913794 25.2719853,20.2913794 C23.50891,20.2913794 22.2423971,19.6199789 21.4710516,18.2771779 L21.4152581,18.2771779 L21.4152581,25.7527935 L18.4414634,25.7527935 L18.4414634,10.4510734 C18.4414634,8.93376741 18.4038028,7.37653234 18.3312712,5.77936816 L20.9465925,5.77936816 L21.1125783,8.02870771 L21.1683718,8.02870771 C22.1601016,6.33393905 23.6651319,5.48803358 25.6848574,5.48803358 C27.263814,5.48803358 28.581936,6.14908209 29.6364336,7.47265796 C30.6937208,8.79771269 31.2209696,10.5398047 31.2209696,12.7004129 Z M28.1913813,12.8157637 C28.1913813,11.4345124 27.8984654,10.2957935 27.3098437,9.39960697 C26.6668234,8.46497015 25.8034186,7.99765174 24.7210243,7.99765174 C23.9873395,7.99765174 23.3206069,8.25793035 22.725011,8.77109328 C22.1280204,9.28869279 21.7374657,9.96452985 21.5547419,10.8015622 C21.4626826,11.1919801 21.416653,11.5114129 21.416653,11.7628184 L21.416653,14.1289876 C21.416653,15.1612289 21.7151483,16.0322749 22.312139,16.7436045 C22.9091297,17.4549341 23.6846596,17.8098595 24.6387288,17.8098595 C25.7587838,17.8098595 26.6305576,17.3514142 27.2540502,16.4374813 C27.8789376,15.5220697 28.1913813,14.3153234 28.1913813,12.8157637 Z" id="Shape"></path>
                                <path d="M46.6157971,12.7004129 C46.6157971,15.1139055 46.0006735,17.0216294 44.7690315,18.4221057 C43.6685043,19.6687811 42.3001682,20.2913794 40.6668128,20.2913794 C38.9037375,20.2913794 37.6372246,19.6199789 36.867274,18.2771779 L36.8114804,18.2771779 L36.8114804,25.7527935 L33.8376857,25.7527935 L33.8376857,10.4510734 C33.8376857,8.93376741 33.8000251,7.37653234 33.7274935,5.77936816 L36.3428149,5.77936816 L36.5088006,8.02870771 L36.5645941,8.02870771 C37.5549291,6.33393905 39.0599594,5.48803358 41.0810797,5.48803358 C42.6586415,5.48803358 43.9767635,6.14908209 45.0340507,7.47265796 C46.0871534,8.79771269 46.6157971,10.5398047 46.6157971,12.7004129 Z M43.5862088,12.8157637 C43.5862088,11.4345124 43.291898,10.2957935 42.7032763,9.39960697 C42.060256,8.46497015 41.1996409,7.99765174 40.1158518,7.99765174 C39.3807721,7.99765174 38.7154344,8.25793035 38.1184437,8.77109328 C37.521453,9.28869279 37.1322932,9.96452985 36.9495694,10.8015622 C36.8589049,11.1919801 36.8114804,11.5114129 36.8114804,11.7628184 L36.8114804,14.1289876 C36.8114804,15.1612289 37.1099758,16.0322749 37.7041768,16.7436045 C38.3011675,17.4534552 39.0766974,17.8098595 40.0335563,17.8098595 C41.1536113,17.8098595 42.0253851,17.3514142 42.6488777,16.4374813 C43.2737651,15.5220697 43.5862088,14.3153234 43.5862088,12.8157637 Z" id="Shape"></path>
                                <path d="M63.8280985,14.4513781 C63.8280985,16.1254428 63.2799272,17.4874689 62.1793999,18.5389353 C60.9700754,19.6880062 59.2865058,20.2618022 57.123112,20.2618022 C55.125704,20.2618022 53.5244299,19.8536381 52.3123156,19.0358308 L53.0013656,16.4079042 C54.306934,17.2449366 55.7394327,17.6649316 57.3002565,17.6649316 C58.4203114,17.6649316 59.2920852,17.3957799 59.9183675,16.8604341 C60.5418601,16.3250883 60.852909,15.6063644 60.852909,14.7101779 C60.852909,13.9115958 60.5962588,13.2387164 60.0815635,12.6930187 C59.569658,12.1473209 58.7146222,11.6400734 57.5206409,11.1712761 C54.2706682,9.8861505 52.6470768,8.00356716 52.6470768,5.52796269 C52.6470768,3.91009453 53.2161707,2.58356095 54.3557534,1.55131965 C55.4911515,0.517599502 57.0059456,0.00147885572 58.9001357,0.00147885572 C60.5892846,0.00147885572 61.9924917,0.313517413 63.1125466,0.936115672 L62.3690979,3.50636692 C61.3229694,2.90299378 60.1401467,2.60130721 58.8164454,2.60130721 C57.7703169,2.60130721 56.9529418,2.87489552 56.3671098,3.41911443 C55.8719423,3.90565796 55.6236611,4.4986791 55.6236611,5.20113557 C55.6236611,5.97901368 55.9068133,6.62231592 56.4759072,7.12808458 C56.9710747,7.59540299 57.8707452,8.10117164 59.1763136,8.6468694 C60.7734032,9.32862189 61.946462,10.1257251 62.7010694,11.039658 C63.4528871,11.9506331 63.8280985,13.0908308 63.8280985,14.4513781 Z" id="Shape"></path>
                                <path d="M73.6603119,8.14553731 L70.3824425,8.14553731 L70.3824425,15.0355261 C70.3824425,16.7879701 70.9599054,17.6634527 72.117621,17.6634527 C72.6490543,17.6634527 73.0898231,17.6146505 73.4385326,17.517046 L73.5208281,19.9113134 C72.9349961,20.1434938 72.1636507,20.2603234 71.2081866,20.2603234 C70.033733,20.2603234 69.1159295,19.8802575 68.4533815,19.1216045 C67.7936231,18.3614726 67.4616516,17.086699 67.4616516,15.2958047 L67.4616516,8.1425796 L65.5088784,8.1425796 L65.5088784,5.77641045 L67.4616516,5.77641045 L67.4616516,3.17806095 L70.3824425,2.24342413 L70.3824425,5.77641045 L73.6603119,5.77641045 L73.6603119,8.14553731 Z" id="Shape"></path>
                                <path d="M88.4497797,12.7580883 C88.4497797,14.9394005 87.861158,16.7302948 86.6867044,18.1307711 C85.4550624,19.5726555 83.8203122,20.2913794 81.7824538,20.2913794 C79.8185218,20.2913794 78.2549084,19.6007537 77.0888238,18.2195025 C75.9227392,16.8382512 75.3396969,15.0946803 75.3396969,12.9932264 C75.3396969,10.7941679 75.9394772,8.99292164 77.1432225,7.59244527 C78.344178,6.19049005 79.9649798,5.48951244 82.0028382,5.48951244 C83.9667702,5.48951244 85.5471217,6.18013806 86.7397082,7.56286816 C87.8806857,8.9041903 88.4497797,10.6359303 88.4497797,12.7580883 Z M85.3643979,12.8601294 C85.3643979,11.551342 85.1007735,10.4288905 84.5665505,9.49277488 C83.9430579,8.35997139 83.0517564,7.79504851 81.8968305,7.79504851 C80.7014543,7.79504851 79.7934148,8.36145025 79.1699222,9.49277488 C78.6356992,10.4303694 78.3720748,11.5705672 78.3720748,12.9192836 C78.3720748,14.2280709 78.6356992,15.3505224 79.1699222,16.2851592 C79.8129425,17.4179627 80.7112182,17.9828856 81.8703286,17.9828856 C83.0057268,17.9828856 83.8970283,17.4061318 84.5400486,16.2555821 C85.08822,15.3017201 85.3643979,14.1674378 85.3643979,12.8601294 Z" id="Shape"></path>
                                <path d="M98.1160073,8.55222264 C97.8216965,8.49454726 97.5078579,8.46497015 97.1786761,8.46497015 C96.1325476,8.46497015 95.3235415,8.88348632 94.7544476,9.72199751 C94.2592801,10.4614254 94.0109989,11.3960622 94.0109989,12.5244291 L94.0109989,19.9704677 L91.0385991,19.9704677 L91.0664958,10.2484701 C91.0664958,8.61285572 91.0288352,7.12364801 90.9549088,5.78084701 L93.545123,5.78084701 L93.6539204,8.49602612 L93.7362158,8.49602612 C94.0500544,7.56286816 94.5452219,6.81160945 95.2231132,6.24816542 C95.8856613,5.74091791 96.6012132,5.48803358 97.3725586,5.48803358 C97.6473417,5.48803358 97.8956229,5.50873756 98.1160073,5.54570896 L98.1160073,8.55222264 Z" id="Shape"></path>
                                <path d="M111.415788,12.2035174 C111.415788,12.7684403 111.380917,13.2446318 111.306991,13.6335709 L102.385607,13.6335709 C102.420478,15.0355261 102.851482,16.1076965 103.680016,16.8471244 C104.431834,17.5081729 105.404036,17.8394366 106.598017,17.8394366 C107.918929,17.8394366 109.124069,17.6161294 110.207858,17.1680361 L110.673734,19.3567425 C109.407221,19.9423694 107.911955,20.233704 106.18654,20.233704 C104.111021,20.233704 102.48185,19.5859652 101.296238,18.2919664 C100.113415,16.9979677 99.5206092,15.2603122 99.5206092,13.0804789 C99.5206092,10.9405746 100.07157,9.15855348 101.174887,7.73737313 C102.329813,6.22006716 103.890637,5.46141418 105.854569,5.46141418 C107.78363,5.46141418 109.244025,6.22006716 110.235755,7.73737313 C111.021049,8.94264055 111.415788,10.4333271 111.415788,12.2035174 Z M108.580082,11.3857102 C108.59961,10.4510734 108.405728,9.64361816 108.002619,8.96186567 C107.487924,8.08490423 106.697051,7.64716294 105.63279,7.64716294 C104.660587,7.64716294 103.869714,8.07455224 103.265749,8.93228856 C102.770582,9.61404104 102.476271,10.4318483 102.385607,11.3842313 L108.580082,11.3842313 L108.580082,11.3857102 Z" id="Shape"></path>
                            </g>
                            <g id="Group-Copy-3" transform="translate(61.423256, 9.522388)" fill="#FFFFFF">
                                <path d="M7.42666163,5.06035565 C7.42666163,6.73126203 6.93967925,7.98905561 5.96709406,8.8337364 C5.06624565,9.61311414 3.78602003,10.0035128 2.12779677,10.0035128 C1.3055829,10.0035128 0.602010634,9.96660241 0.0129413048,9.89278157 L0.0129413048,0.763130845 C0.781352585,0.635364003 1.60908466,0.57006095 2.50303531,0.57006095 C4.08262403,0.57006095 5.27317867,0.923549214 6.07607878,1.63052574 C6.97554764,2.42977833 7.42666163,3.57258175 7.42666163,5.06035565 Z M5.90225505,5.10152497 C5.90225505,4.01834607 5.62358525,3.18786159 5.06624565,2.60865191 C4.50890605,2.03086185 3.6949695,1.74125701 2.62305646,1.74125701 C2.16780382,1.74125701 1.78014929,1.7724889 1.45871334,1.83779195 L1.45871334,8.77837077 C1.63667573,8.8067634 1.96225035,8.81954009 2.43543719,8.81954009 C3.54183907,8.81954009 4.39578266,8.50296225 4.99726797,7.86980656 C5.59875329,7.23665087 5.90225505,6.31389034 5.90225505,5.10152497 Z" id="Shape"></path>
                                <path d="M15.5094654,6.51973692 C15.5094654,7.54896982 15.2238978,8.39223098 14.6527627,9.0537793 C14.0540365,9.73378283 13.2607932,10.0730748 12.2702738,10.0730748 C11.3156228,10.0730748 10.5554889,9.74797915 9.98849241,9.09494862 C9.42287549,8.44333772 9.14006703,7.62137103 9.14006703,6.63046819 C9.14006703,5.59413713 9.43115281,4.74377781 10.0160835,4.08364912 C10.6010142,3.42352044 11.3873596,3.09274628 12.377879,3.09274628 C13.33253,3.09274628 14.0995617,3.41784191 14.6803537,4.06945281 C15.2321751,4.70260849 15.5094654,5.52031629 15.5094654,6.51973692 Z M14.0098908,6.5680044 C14.0098908,5.95046466 13.8802127,5.42094207 13.6222362,4.97943665 C13.3187345,4.44565518 12.8869342,4.17876444 12.325456,4.17876444 C11.744664,4.17876444 11.3032069,4.44565518 10.9997051,4.97943665 C10.7403491,5.42094207 10.6120506,5.95898245 10.6120506,6.5949774 C10.6120506,7.21251713 10.7417286,7.74203972 10.9997051,8.18354514 C11.3128637,8.71732661 11.7488026,8.98421735 12.3116604,8.98421735 C12.8634818,8.98421735 13.2966616,8.71306772 13.6084407,8.16934882 C13.8760741,7.71932561 14.0098908,7.18554413 14.0098908,6.5680044 Z" id="Shape"></path>
                                <path d="M26.3472374,3.22903091 L24.312396,9.9211742 L22.9880247,9.9211742 L22.1451175,7.01518834 C21.9312868,6.2897566 21.757463,5.56858376 21.6222668,4.85308944 L21.5960553,4.85308944 C21.4705159,5.5884586 21.2966922,6.30821182 21.0732045,7.01518834 L20.1778743,9.9211742 L18.8383279,9.9211742 L16.9248872,3.22903091 L18.4106663,3.22903091 L19.1459683,6.41042529 C19.3239307,7.16283003 19.4701634,7.87974398 19.5874254,8.55832788 L19.6136369,8.55832788 C19.7212421,7.99899303 19.8992045,7.28633798 20.1502832,6.42462161 L21.0732045,3.23045054 L22.2513432,3.23045054 L23.1356369,6.35647929 C23.3494677,7.11882145 23.5232915,7.85277098 23.6571081,8.55974751 L23.6971152,8.55974751 C23.7950635,7.87122619 23.9426757,7.13727666 24.1385723,6.35647929 L24.9276769,3.23045054 L26.3472374,3.23045054 L26.3472374,3.22903091 Z" id="Shape"></path>
                                <path d="M33.8423514,9.9211742 L32.3965793,9.9211742 L32.3965793,6.08816892 C32.3965793,4.90703544 31.9606405,4.3164687 31.0860036,4.3164687 C30.6569624,4.3164687 30.3106945,4.4783067 30.0416816,4.80340234 C29.7754278,5.12849797 29.6402315,5.5117985 29.6402315,5.95046466 L29.6402315,9.91975457 L28.1944595,9.91975457 L28.1944595,5.14127465 C28.1944595,4.55354718 28.1765253,3.91613259 28.1420365,3.22619164 L29.4126052,3.22619164 L29.4802033,4.27246012 L29.5202104,4.27246012 C29.6885159,3.94736449 29.9395946,3.67905412 30.2693079,3.46468975 C30.6611011,3.21483459 31.0997991,3.08848738 31.5798837,3.08848738 C32.1868872,3.08848738 32.6918038,3.29007507 33.0932538,3.69467007 C33.5926522,4.19012149 33.8423514,4.92974955 33.8423514,5.9121346 L33.8423514,9.9211742 Z" id="Shape"></path>
                                <polygon id="Shape" points="37.8292609 9.9211742 36.3848684 9.9211742 36.3848684 0.15836779 37.8292609 0.15836779"></polygon>
                                <path d="M46.3411058,6.51973692 C46.3411058,7.54896982 46.0555382,8.39223098 45.4844031,9.0537793 C44.8856769,9.73378283 44.0910541,10.0730748 43.1019142,10.0730748 C42.1458837,10.0730748 41.3857497,9.74797915 40.8201328,9.09494862 C40.2545159,8.44333772 39.9717074,7.62137103 39.9717074,6.63046819 C39.9717074,5.59413713 40.2627932,4.74377781 40.8477239,4.08364912 C41.4326545,3.42352044 42.219,3.09274628 43.2081399,3.09274628 C44.1641704,3.09274628 44.9298226,3.41784191 45.5119941,4.06945281 C46.0638155,4.70260849 46.3411058,5.52031629 46.3411058,6.51973692 Z M44.8401516,6.5680044 C44.8401516,5.95046466 44.7104736,5.42094207 44.4524971,4.97943665 C44.1503749,4.44565518 43.7171951,4.17876444 43.1570964,4.17876444 C42.5749248,4.17876444 42.1334677,4.44565518 41.8313455,4.97943665 C41.5719894,5.42094207 41.443691,5.95898245 41.443691,6.5949774 C41.443691,7.21251713 41.573369,7.74203972 41.8313455,8.18354514 C42.1445041,8.71732661 42.580443,8.98421735 43.1433008,8.98421735 C43.6951222,8.98421735 44.1269225,8.71306772 44.4387015,8.16934882 C44.7077145,7.71932561 44.8401516,7.18554413 44.8401516,6.5680044 Z" id="Shape"></path>
                                <path d="M53.3382009,9.9211742 L52.0400411,9.9211742 L51.932436,9.15031425 L51.8924289,9.15031425 C51.4482127,9.76501472 50.8149977,10.0730748 49.9927838,10.0730748 C49.3788825,10.0730748 48.8822433,9.87006746 48.5083843,9.46689209 C48.1690141,9.10062714 47.999329,8.6449254 47.999329,8.10404577 C47.999329,7.28633798 48.3304219,6.66311971 48.9967462,6.23155171 C49.661691,5.79998371 50.5970282,5.5884586 51.8013784,5.59839602 L51.8013784,5.47346844 C51.8013784,4.59187723 51.351644,4.15179144 50.4507955,4.15179144 C49.8093032,4.15179144 49.2436863,4.31788833 48.7553243,4.64724286 L48.4614794,3.67053633 C49.0657239,3.28581617 49.8120623,3.09274628 50.6922174,3.09274628 C52.3918273,3.09274628 53.2443913,4.01550681 53.2443913,5.86102787 L53.2443913,8.3255083 C53.2443913,8.99415477 53.276121,9.52651662 53.3382009,9.9211742 Z M51.8372468,7.62137103 L51.8372468,6.58929887 C50.242483,6.56090624 49.4451011,7.01092945 49.4451011,7.93794887 C49.4451011,8.28717824 49.5361516,8.54839046 49.7223913,8.72300514 C49.908631,8.89761983 50.1459142,8.98421735 50.4287227,8.98421735 C50.74602,8.98421735 51.042624,8.88058425 51.3130165,8.67473767 C51.5847885,8.46747146 51.7517145,8.20483961 51.8137944,7.88258324 C51.8289695,7.81018203 51.8372468,7.72216487 51.8372468,7.62137103 Z" id="Shape"></path>
                                <path d="M61.5534418,9.9211742 L60.2704571,9.9211742 L60.202859,8.84651309 L60.1628519,8.84651309 C59.7531246,9.66422088 59.0550705,10.0730748 58.074208,10.0730748 C57.2906216,10.0730748 56.6380928,9.75649693 56.1207603,9.12334125 C55.6034277,8.49018556 55.3454512,7.66821887 55.3454512,6.65886082 C55.3454512,5.57568192 55.6255006,4.6983496 56.1883584,4.02828349 C56.733282,3.40364559 57.4009859,3.09132664 58.1956087,3.09132664 C59.068866,3.09132664 59.6800082,3.39370817 60.0276557,3.99989086 L60.0552468,3.99989086 L60.0552468,0.15836779 L61.5023984,0.15836779 L61.5023984,8.11824209 C61.5023984,8.76985298 61.518953,9.37035714 61.5534418,9.9211742 Z M60.0552468,7.09894661 L60.0552468,5.98311618 C60.0552468,5.79004629 60.0414512,5.63388681 60.0152397,5.51463776 C59.9338461,5.1568906 59.7586428,4.8559287 59.492389,4.6131717 C59.223376,4.3704147 58.899181,4.24832639 58.525322,4.24832639 C57.9859166,4.24832639 57.5637732,4.46836928 57.2533737,4.9098747 C56.9457333,5.35138013 56.7898437,5.91497387 56.7898437,6.60349518 C56.7898437,7.2650435 56.9374559,7.80166424 57.2340599,8.21477703 C57.5472186,8.65486282 57.9693619,8.87490572 58.4977309,8.87490572 C58.9722973,8.87490572 59.3516745,8.69177325 59.6400012,8.32408867 C59.918671,7.98479672 60.0552468,7.57594282 60.0552468,7.09894661 Z" id="Shape"></path>
                                <path d="M73.9183795,6.51973692 C73.9183795,7.54896982 73.632812,8.39223098 73.0616768,9.0537793 C72.4629506,9.73378283 71.6710869,10.0730748 70.679188,10.0730748 C69.7259166,10.0730748 68.9657826,9.74797915 68.3974066,9.09494862 C67.8317897,8.44333772 67.5489812,7.62137103 67.5489812,6.63046819 C67.5489812,5.59413713 67.840067,4.74377781 68.4249976,4.08364912 C69.0099283,3.42352044 69.7962738,3.09274628 70.7881727,3.09274628 C71.7414442,3.09274628 72.5098555,3.41784191 73.0892679,4.06945281 C73.6410893,4.70260849 73.9183795,5.52031629 73.9183795,6.51973692 Z M72.4201845,6.5680044 C72.4201845,5.95046466 72.2905065,5.42094207 72.03253,4.97943665 C71.7276486,4.44565518 71.297228,4.17876444 70.7343701,4.17876444 C70.1549577,4.17876444 69.7135006,4.44565518 69.4086193,4.97943665 C69.1492632,5.42094207 69.0209647,5.95898245 69.0209647,6.5949774 C69.0209647,7.21251713 69.1506428,7.74203972 69.4086193,8.18354514 C69.7217779,8.71732661 70.1577168,8.98421735 70.7205746,8.98421735 C71.272396,8.98421735 71.7069553,8.71306772 72.0187344,8.16934882 C72.2849882,7.71932561 72.4201845,7.18554413 72.4201845,6.5680044 Z" id="Shape"></path>
                                <path d="M81.6921633,9.9211742 L80.2477708,9.9211742 L80.2477708,6.08816892 C80.2477708,4.90703544 79.8118319,4.3164687 78.9358155,4.3164687 C78.5067744,4.3164687 78.1605064,4.4783067 77.8928731,4.80340234 C77.6252397,5.12849797 77.491423,5.5117985 77.491423,5.95046466 L77.491423,9.91975457 L76.0442714,9.91975457 L76.0442714,5.14127465 C76.0442714,4.55354718 76.0277168,3.91613259 75.993228,3.22619164 L77.2624171,3.22619164 L77.3300153,4.27246012 L77.3700223,4.27246012 C77.5397074,3.94736449 77.7907861,3.67905412 78.1191198,3.46468975 C78.5122926,3.21483459 78.949611,3.08848738 79.4310752,3.08848738 C80.0366992,3.08848738 80.5416157,3.29007507 80.9430658,3.69467007 C81.4438437,4.19012149 81.6921633,4.92974955 81.6921633,5.9121346 L81.6921633,9.9211742 Z" id="Shape"></path>
                                <path d="M91.4221539,4.3434417 L89.8301492,4.3434417 L89.8301492,7.59439803 C89.8301492,8.42062361 90.1129577,8.8337364 90.6730564,8.8337364 C90.9324124,8.8337364 91.1476228,8.8110223 91.3173078,8.76417446 L91.3545558,9.89278157 C91.0689882,10.0035128 90.6937497,10.0588785 90.2315993,10.0588785 C89.6604641,10.0588785 89.2162479,9.88000488 88.894812,9.52225772 C88.5719965,9.16451056 88.4119682,8.56258677 88.4119682,7.71790598 L88.4119682,4.3434417 L87.4614559,4.3434417 L87.4614559,3.22903091 L88.4119682,3.22903091 L88.4119682,2.00246922 L89.8287697,1.56238343 L89.8287697,3.22761128 L91.4207744,3.22761128 L91.4207744,4.3434417 L91.4221539,4.3434417 Z" id="Shape"></path>
                                <path d="M99.0759165,9.9211742 L97.6287649,9.9211742 L97.6287649,6.11656155 C97.6287649,4.91697286 97.1928261,4.3164687 96.3195687,4.3164687 C95.6491057,4.3164687 95.191094,4.66427844 94.9400152,5.35989792 C94.8972491,5.50611997 94.8724171,5.68499355 94.8724171,5.89509902 L94.8724171,9.91975457 L93.4280246,9.91975457 L93.4280246,0.15836779 L94.8724171,0.15836779 L94.8724171,4.19154112 L94.9000082,4.19154112 C95.3552608,3.45759159 96.0077896,3.09132664 96.8534559,3.09132664 C97.4521821,3.09132664 97.9474418,3.29291433 98.3406145,3.69750933 C98.830356,4.20147854 99.0759165,4.95104402 99.0759165,5.94194687 L99.0759165,9.9211742 Z" id="Shape"></path>
                                <path d="M106.971101,6.25852471 C106.971101,6.52541545 106.951787,6.74971724 106.917298,6.93284971 L102.581362,6.93284971 C102.600676,7.59439803 102.807609,8.09836724 103.209059,8.44759661 C103.57602,8.75991556 104.049207,8.91607504 104.628619,8.91607504 C105.270112,8.91607504 105.855042,8.8110223 106.382032,8.59949719 L106.608278,9.63298899 C105.991618,9.90839751 105.265973,10.0461018 104.425825,10.0461018 C103.418751,10.0461018 102.625508,9.74088099 102.051613,9.13043941 C101.47496,8.51999782 101.189392,7.7008704 101.189392,6.67305713 C101.189392,5.66369908 101.455646,4.82327718 101.992293,4.15321107 C102.552391,3.43771675 103.309766,3.07996959 104.265797,3.07996959 C105.201134,3.07996959 105.911604,3.43771675 106.391689,4.15321107 C106.779343,4.7210637 106.971101,5.42378134 106.971101,6.25852471 Z M105.591548,5.87380455 C105.602584,5.43229913 105.507395,5.05183786 105.311498,4.73100112 C105.060419,4.31788833 104.678283,4.11062212 104.160951,4.11062212 C103.689143,4.11062212 103.304248,4.31220981 103.010403,4.71680481 C102.770361,5.03906118 102.628267,5.42378134 102.581362,5.87380455 L105.591548,5.87380455 Z" id="Shape"></path>
                            </g>
                            <g id="Group-Copy" transform="translate(12.976744, 6.925373)" fill="#FFFFFF">
                                <path d="M23.6825603,20.1015761 C23.6429438,15.3188671 27.2876555,12.9920636 27.4543178,12.8837366 C25.3901651,9.61463704 22.1907967,9.16797387 21.0665097,9.13235953 C18.3794228,8.82518585 15.7729348,10.8789461 14.4041188,10.8789461 C13.0079811,10.8789461 10.9001137,9.16203814 8.62831625,9.21249179 C5.70489681,9.26146151 2.96999695,11.1000518 1.47003688,13.9551347 C-1.62550912,19.7765953 0.683172584,28.3314565 3.64894062,33.0370011 C5.13250768,35.3415457 6.86606808,37.9146817 9.13513336,37.8241619 C11.3550196,37.7247386 12.1842325,36.2868096 14.8631229,36.2868096 C17.5174239,36.2868096 18.2960916,37.8241619 20.6102377,37.7662886 C22.9926879,37.7247386 24.492648,35.4513565 25.9243039,33.126037 C27.6387391,30.4846401 28.3272453,27.8833094 28.354567,27.7497556 C28.2985576,27.7289806 23.727641,25.8340009 23.6825603,20.1015761 Z" id="Shape"></path>
                                <path d="M19.4950368,6.06779312 C20.688994,4.44585674 21.5059122,2.23925161 21.2791423,0 C19.5510462,0.0831001259 17.3899015,1.29843947 16.1453992,2.88476151 C15.0443356,4.28262435 14.0607552,6.57381353 14.3148468,8.72848108 C16.256052,8.88577775 18.2491683,7.66450268 19.4950368,6.06779312 Z" id="Shape"></path>
                            </g>
                        </g>
                    </g>
                </g>
            </g>
        </g>
    </g>
</svg>