<?xml version="1.0" encoding="UTF-8"?>
<svg width="186px" height="58px" viewBox="0 0 186 58" version="1.1" xmlns="http://www.w3.org/2000/svg" xmlns:xlink="http://www.w3.org/1999/xlink">
    <!-- Generator: Sketch 52.6 (67491) - http://www.bohemiancoding.com/sketch -->
    <title>icon-download-android</title>
    <desc>Created with Sketch.</desc>
    <g id="onboarding-v3" stroke="none" stroke-width="1" fill="none" fill-rule="evenodd">
        <g id="Signup" transform="translate(-1071.000000, -847.000000)" fill-rule="nonzero">
            <g id="Group-13" transform="translate(841.000000, 175.000000)">
                <g id="Group-7" transform="translate(0.000000, 633.000000)">
                    <g id="Group" transform="translate(32.753731, 38.500000)">
                        <g id="icon-download-android" transform="translate(197.246269, 0.500000)">
                            <path d="M180.643884,58 L5.36310105,58 C2.40284809,58 0,55.3981365 0,52.1860343 L0,5.8215557 C0,2.61097152 2.40284809,5.68434189e-14 5.36310105,5.68434189e-14 L180.642487,5.68434189e-14 C183.605534,5.68434189e-14 185.998603,2.61097152 185.998603,5.8215557 L186,52.1860343 C186,55.3981365 183.605534,58 180.643884,58 Z" id="Shape-Copy-2" fill="#000000"></path>
                            <path d="M63.036732,12.129443 C63.7035443,12.129443 64.2801511,12.2633084 64.7665697,12.5310432 C65.4720378,12.9159121 65.9036876,13.5902591 66.0615321,14.5541045 L65.1096381,14.5541045 C64.9936708,14.0152881 64.7536864,13.6228951 64.3896777,13.3769138 C64.0256691,13.1309324 63.5666385,13.0079435 63.0125722,13.0079435 C62.3554239,13.0079435 61.8021713,13.2639611 61.3527978,13.776004 C60.9034242,14.2880469 60.6787409,15.0510797 60.6787409,16.0651254 C60.6787409,16.941957 60.8639637,17.655627 61.234415,18.2061567 C61.6048663,18.7566865 62.2088539,19.0319472 63.0463959,19.0319472 C63.6874377,19.0319472 64.2181414,18.838679 64.6385231,18.4521369 C65.0589048,18.0655947 65.2739243,17.4406106 65.2835883,16.5771657 L63.0608917,16.5771657 L63.0608917,15.7488652 L66.1774989,15.7488652 L66.1774989,19.6945876 L65.5590094,19.6945876 L65.3270758,18.745807 C65.001723,19.1172891 64.7134196,19.37498 64.462157,19.5188875 C64.0401646,19.7665422 63.5038237,19.8903677 62.8531179,19.8903677 C62.0123546,19.8903677 61.2891801,19.6075771 60.6835728,19.0419872 C60.0232031,18.3324899 59.6930233,17.3586191 59.6930233,16.1203454 C59.6930233,14.8854185 60.01515,13.9031811 60.6594131,13.1736036 C61.271463,12.4774931 62.0638947,12.129443 63.036732,12.129443 Z M67.6102962,12.3202031 L72.7853136,12.3202031 L72.7853136,13.2238037 L68.5476943,13.2238037 L68.5476943,15.462725 L72.466405,15.462725 L72.466405,16.3161256 L68.5476943,16.3161256 L68.5476943,18.8160871 L72.8577929,18.8160871 L72.8577929,19.6945876 L67.6102962,19.6945876 L67.6102962,12.3202031 Z M79.1370351,12.3202031 L79.1370351,13.1987036 L76.7452204,13.1987036 L76.7452204,19.6945876 L75.7691666,19.6945876 L75.7691666,13.1987036 L73.3773519,13.1987036 L73.3773519,12.3202031 L79.1370351,12.3202031 Z M82.5148164,12.3202031 L83.4860382,12.3202031 L83.4860382,19.6945876 L82.5148164,19.6945876 L82.5148164,12.3202031 Z M90.0648613,12.3202031 L90.0648613,13.1987036 L87.6730465,13.1987036 L87.6730465,19.6945876 L86.6969928,19.6945876 L86.6969928,13.1987036 L84.305178,13.1987036 L84.305178,12.3202031 L90.0648613,12.3202031 Z M96.2886606,12.119403 C97.5417523,12.119403 98.4694772,12.5377324 99.0718632,13.3744038 C99.5421753,14.0270074 99.7773278,14.8619929 99.7773278,15.8793853 C99.7773278,16.9804448 99.508352,17.8957495 98.9703923,18.625327 C98.3390145,19.4820784 97.4386703,19.9104478 96.2693328,19.9104478 C95.1773069,19.9104478 94.3188392,19.5356246 93.693904,18.7859671 C93.1366164,18.063083 92.8579768,17.1494516 92.8579768,16.0450454 C92.8579768,15.0477331 93.0963505,14.1943411 93.5731052,13.4848438 C94.1851552,12.5745454 95.0903312,12.119403 96.2886606,12.119403 Z M96.3852996,19.0168872 C97.2325055,19.0168872 97.8453516,18.7014668 98.2238562,18.0706166 C98.6023608,17.4397664 98.7916102,16.7143832 98.7916102,15.8944453 C98.7916102,15.0276538 98.5733693,14.3298803 98.1368811,13.801104 C97.7003929,13.2723277 97.1036531,13.0079435 96.346644,13.0079435 C95.6121841,13.0079435 95.0130284,13.2698177 94.5491589,13.793574 C94.0852895,14.3173303 93.8533583,15.0895664 93.8533583,16.1103054 C93.8533583,16.9268967 94.0522715,17.6154669 94.450104,18.1760367 C94.8479364,18.7366065 95.4929952,19.0168872 96.3852996,19.0168872 Z M100.77525,12.3202031 L101.910758,12.3202031 L105.496064,18.2940068 L105.496064,12.3202031 L106.409302,12.3202031 L106.409302,19.6945876 L105.331778,19.6945876 L101.69332,13.725804 L101.69332,19.6945876 L100.77525,19.6945876 L100.77525,12.3202031 Z" id="GETITON" fill="#FFFFFF"></path>
                            <path d="M64.1004615,26.8358209 C65.324454,26.8358209 66.3828664,27.0713754 67.2757305,27.5424916 C68.5706791,28.2197211 69.3630102,29.4063272 69.6527475,31.1023454 L67.9054626,31.1023454 C67.6925944,30.1542241 67.2520819,29.4637548 66.5839121,29.0309168 C65.9157423,28.5980789 65.0731514,28.3816631 64.0561142,28.3816631 C62.8498607,28.3816631 61.8343169,28.8321612 61.0094524,29.7331709 C60.1845879,30.6341806 59.7721619,31.9768415 59.7721619,33.761194 C59.7721619,35.3040995 60.1121547,36.5598997 60.7921505,37.5286323 C61.4721463,38.497365 62.5808186,38.981724 64.1182004,38.981724 C65.2948889,38.981724 66.2690422,38.6416421 67.0406896,37.9614682 C67.8123371,37.2812942 68.2070244,36.1815489 68.2247634,34.6621992 L64.1448088,34.6621992 L64.1448088,33.2046908 L69.8656147,33.2046908 L69.8656147,40.1477307 L68.730323,40.1477307 L68.3045886,38.4782211 C67.7073749,39.1318948 67.1781687,39.5853373 66.7169541,39.8385623 C65.9423502,40.2743448 64.9578492,40.4922327 63.7634218,40.4922327 C62.2201269,40.4922327 60.8926767,39.9946237 59.7810313,38.9993908 C58.5688648,37.7509329 57.9627907,36.0372736 57.9627907,33.8583613 C57.9627907,31.6853379 58.5540826,29.9569564 59.736684,28.6731648 C60.8601554,27.4482627 62.3147333,26.8358209 64.1004615,26.8358209 Z M75.8837762,39.1230582 C76.9422045,39.1230582 77.6680153,38.7240877 78.0612302,37.9261346 C78.4544452,37.1281816 78.6510498,36.2404354 78.6510498,35.2628693 C78.6510498,34.3795265 78.5091397,33.6610851 78.2253154,33.1075236 C77.7759268,32.2359587 77.0013345,31.8001828 75.9015151,31.8001828 C74.925869,31.8001828 74.2163187,32.1711812 73.7728432,32.9131892 C73.3293676,33.6551971 73.1076332,34.5503044 73.1076332,35.5985379 C73.1076332,36.6055487 73.3293676,37.4447118 73.7728432,38.1160524 C74.2163187,38.7873929 74.919956,39.1230582 75.8837762,39.1230582 Z M75.9458625,30.4133415 C77.169855,30.4133415 78.2046157,30.8196731 79.0501757,31.6323485 C79.8957358,32.4450239 80.3185095,33.6404632 80.3185095,35.2187024 C80.3185095,36.743941 79.9459956,38.0041579 79.2009567,38.9993908 C78.4559178,39.9946237 77.2999422,40.4922327 75.7329953,40.4922327 C74.4262207,40.4922327 73.3885035,40.0520401 72.6198125,39.1716418 C71.8511216,38.2912434 71.4667819,37.109054 71.4667819,35.6250381 C71.4667819,34.035021 71.8718168,32.7689153 72.6818988,31.8266829 C73.4919808,30.8844506 74.5799578,30.4133415 75.9458625,30.4133415 Z M85.7158083,39.1230582 C86.7742366,39.1230582 87.5000473,38.7240877 87.8932623,37.9261346 C88.2864773,37.1281816 88.4830818,36.2404354 88.4830818,35.2628693 C88.4830818,34.3795265 88.3411718,33.6610851 88.0573474,33.1075236 C87.6079589,32.2359587 86.8333666,31.8001828 85.7335472,31.8001828 C84.757901,31.8001828 84.0483508,32.1711812 83.6048753,32.9131892 C83.1613997,33.6551971 82.9396653,34.5503044 82.9396653,35.5985379 C82.9396653,36.6055487 83.1613997,37.4447118 83.6048753,38.1160524 C84.0483508,38.7873929 84.7519881,39.1230582 85.7158083,39.1230582 Z M85.7778946,30.4133415 C87.001887,30.4133415 88.0366478,30.8196731 88.8822078,31.6323485 C89.7277679,32.4450239 90.1505415,33.6404632 90.1505415,35.2187024 C90.1505415,36.743941 89.7780277,38.0041579 89.0329888,38.9993908 C88.2879498,39.9946237 87.1319743,40.4922327 85.5650274,40.4922327 C84.2582528,40.4922327 83.2205356,40.0520401 82.4518446,39.1716418 C81.6831537,38.2912434 81.298814,37.109054 81.298814,35.6250381 C81.298814,34.035021 81.7038489,32.7689153 82.5139309,31.8266829 C83.3240129,30.8844506 84.4119899,30.4133415 85.7778946,30.4133415 Z M95.1309754,30.5193421 C95.8760143,30.5193421 96.5264354,30.7018968 97.0822581,31.0670119 C97.3838214,31.2731252 97.6912932,31.5734573 98.0046826,31.9680171 L98.0046826,30.7755102 L99.477014,30.7755102 L99.477014,39.3792263 C99.477014,40.5805726 99.2996265,41.5286796 98.944846,42.223576 C98.2825892,43.5073676 97.0320069,44.1492537 95.1930617,44.1492537 C94.1701115,44.1492537 93.3097818,43.9210603 92.612047,43.4646665 C91.9143121,43.0082727 91.5240595,42.2942479 91.4412774,41.3225708 L93.0643897,41.3225708 C93.1412588,41.7465754 93.2949947,42.0734073 93.525602,42.3030765 C93.8862954,42.6564136 94.4539356,42.8330795 95.2285396,42.8330795 C96.4525321,42.8330795 97.2537325,42.4031924 97.632165,41.5434054 C97.8568593,41.0369555 97.9603353,40.1330149 97.9425963,38.8315565 C97.6232939,39.3144506 97.2389542,39.6736713 96.7895657,39.9092294 C96.3401771,40.1447875 95.7459288,40.2625647 95.0068029,40.2625647 C93.9779397,40.2625647 93.0776978,39.8989274 92.3060504,39.1716418 C91.5344029,38.4443562 91.148585,37.2415558 91.148585,35.5632044 C91.148585,33.9790763 91.5373594,32.7424148 92.3149198,31.8531831 C93.0924803,30.9639513 94.0311561,30.5193421 95.1309754,30.5193421 Z M98.0046826,35.3777033 C98.0046826,34.2058018 97.7622529,33.3371944 97.2773863,32.771855 C96.7925197,32.2065156 96.1746197,31.9238501 95.4236678,31.9238501 C94.3001965,31.9238501 93.5315171,32.447959 93.1176065,33.4961925 C92.8988253,34.055643 92.7894363,34.7888065 92.7894363,35.6957051 C92.7894363,36.7616055 93.006736,37.5727965 93.4413421,38.1293025 C93.8759481,38.6858084 94.4598488,38.9640573 95.1930617,38.9640573 C96.3401851,38.9640573 97.1472985,38.4487817 97.6144261,37.418215 C97.8745984,36.8352088 98.0046826,36.155045 98.0046826,35.3777033 Z M101.654697,27.1714895 L103.2512,27.1714895 L103.2512,40.1477307 L101.654697,40.1477307 L101.654697,27.1714895 Z M109.331448,30.4751751 C110.005531,30.4751751 110.658909,30.6327023 111.2916,30.9477612 C111.924292,31.2628201 112.406195,31.670624 112.737323,32.1711849 C113.056626,32.64819 113.269491,33.2046877 113.375925,33.8406945 C113.470533,34.2764769 113.517836,34.9713629 113.517836,35.9253731 L106.555305,35.9253731 C106.58487,36.8852723 106.812518,37.6552413 107.238254,38.2353031 C107.663991,38.8153649 108.323281,39.1053914 109.216145,39.1053914 C110.049879,39.1053914 110.715083,38.8315592 111.211775,38.2838867 C111.495599,37.9658833 111.696639,37.5978293 111.814899,37.1797137 L113.384794,37.1797137 C113.343403,37.5271619 113.205928,37.9143547 112.972364,38.3413037 C112.7388,38.7682527 112.477154,39.1171679 112.187416,39.3880597 C111.70255,39.8591759 111.102389,40.1771745 110.386915,40.3420652 C110.002569,40.4362884 109.56797,40.4833993 109.083103,40.4833993 C107.900502,40.4833993 106.898262,40.0549845 106.076354,39.1981419 C105.254446,38.3412994 104.843498,37.1414434 104.843498,35.5985379 C104.843498,34.0791883 105.257402,32.8454713 106.085224,31.89735 C106.913045,30.9492287 107.995109,30.4751751 109.331448,30.4751751 Z M111.876985,34.6621992 C111.811942,33.9731918 111.661163,33.422583 111.424642,33.0103564 C110.98708,32.2447926 110.256834,31.8620164 109.233884,31.8620164 C108.500671,31.8620164 107.885728,32.1255431 107.389035,32.6526043 C106.892342,33.1796655 106.629218,33.8495238 106.599653,34.6621992 L111.876985,34.6621992 Z M120.365521,27.1714895 L126.228239,27.1714895 C127.387188,27.1714895 128.321429,27.4968492 129.03099,28.1475784 C129.740551,28.7983077 130.095326,29.7125538 130.095326,30.8903442 C130.095326,31.903244 129.778985,32.7851013 129.146293,33.5359427 C128.513602,34.2867841 127.540926,34.6621992 126.228239,34.6621992 L122.130545,34.6621992 L122.130545,40.1477307 L120.365521,40.1477307 L120.365521,27.1714895 Z M128.312563,30.8991776 C128.312563,29.9451673 127.957788,29.2973923 127.248227,28.9558331 C126.857969,28.7732756 126.32285,28.6819982 125.642854,28.6819982 L122.130545,28.6819982 L122.130545,33.1781907 L125.642854,33.1781907 C126.435197,33.1781907 127.078227,33.0103581 127.571963,32.6746878 C128.065699,32.3390175 128.312563,31.7471867 128.312563,30.8991776 Z M131.873883,27.1714895 L133.470387,27.1714895 L133.470387,40.1477307 L131.873883,40.1477307 L131.873883,27.1714895 Z M136.818839,37.6302163 C136.818839,38.0895545 136.987357,38.4517197 137.324398,38.7167225 C137.66144,38.9817254 138.060562,39.1142248 138.521776,39.1142248 C139.083512,39.1142248 139.627501,38.9846698 140.153758,38.7255559 C141.040709,38.2956624 141.484178,37.5919432 141.484178,36.6143771 L141.484178,35.3335364 C141.289049,35.4572044 141.03775,35.5602595 140.730274,35.6427048 C140.422797,35.7251502 140.121238,35.7840388 139.825588,35.8193725 L138.858816,35.9430399 C138.279341,36.0195963 137.844742,36.140318 137.555005,36.3052087 C137.064225,36.5819894 136.818839,37.0236542 136.818839,37.6302163 Z M140.685926,34.4148645 C141.052533,34.3677528 141.297919,34.2146424 141.422092,33.9555285 C141.493048,33.8141936 141.528525,33.6110278 141.528525,33.346025 C141.528525,32.8042414 141.334877,32.4111597 140.947575,32.1667682 C140.560273,31.9223767 140.005937,31.8001828 139.28455,31.8001828 C138.450816,31.8001828 137.859525,32.0239596 137.510657,32.47152 C137.315528,32.7188559 137.1884,33.0869099 137.12927,33.575693 L135.6392,33.575693 C135.668765,32.4096804 136.04867,31.5984894 136.778926,31.1420956 C137.509183,30.6857019 138.356208,30.4575084 139.320028,30.4575084 C140.437587,30.4575084 141.34522,30.6695075 142.042955,31.093512 C142.734776,31.5175166 143.080682,32.1770693 143.080682,33.0721901 L143.080682,38.5223881 C143.080682,38.6872787 143.114681,38.8197782 143.182681,38.9198903 C143.250681,39.0200025 143.394069,39.0700579 143.61285,39.0700579 C143.683806,39.0700579 143.763631,39.0656412 143.852326,39.0568078 C143.941021,39.0479744 144.035628,39.0347244 144.136149,39.0170576 L144.136149,40.1918977 C143.887802,40.2625651 143.698589,40.3067316 143.568503,40.3243984 C143.438417,40.3420653 143.261029,40.3508986 143.036335,40.3508986 C142.486425,40.3508986 142.087303,40.1565661 141.838957,39.7678952 C141.708871,39.5617819 141.61722,39.2702831 141.564003,38.8933902 C141.238788,39.3173947 140.771667,39.6854487 140.162628,39.9975632 C139.553588,40.3096777 138.882472,40.4657326 138.149259,40.4657326 C137.268221,40.4657326 136.548323,40.1992615 135.989544,39.6663113 C135.430764,39.1333611 135.151379,38.4664473 135.151379,37.6655498 C135.151379,36.7880959 135.42633,36.1079322 135.976239,35.6250381 C136.526149,35.142144 137.247525,34.8447564 138.140389,34.7328663 L140.685926,34.4148645 Z M151.360558,30.6871764 L153.125581,30.6871764 C152.900887,31.2937384 152.401246,32.6776214 151.626642,34.8388669 C151.047167,36.4642177 150.562308,37.7892121 150.172049,38.8138897 C149.24962,41.2283601 148.599199,42.7005761 148.220766,43.2305818 C147.842334,43.7605875 147.191913,44.0255864 146.269484,44.0255864 C146.04479,44.0255864 145.871837,44.0167531 145.75062,43.9990862 C145.629403,43.9814193 145.480102,43.9490306 145.302712,43.901919 L145.302712,42.453244 C145.580623,42.5298004 145.781663,42.5769113 145.905836,42.5945781 C146.030009,42.612245 146.139398,42.6210783 146.234006,42.6210783 C146.529656,42.6210783 146.746956,42.5724952 146.885912,42.4753274 C147.024867,42.3781597 147.141648,42.2589102 147.236256,42.1175754 C147.265821,42.0704638 147.372253,41.8290204 147.555556,41.3932379 C147.73886,40.9574554 147.8719,40.6335679 147.954682,40.4215656 L144.442374,30.6871764 L146.251745,30.6871764 L148.797282,38.3898873 L151.360558,30.6871764 Z" id="GooglePlay" fill="#FFFFFF"></path>
                            <g id="google-play-(1)" transform="translate(13.841860, 11.253731)">
                                <path d="M0.153522208,1.29086419 C0.0623313342,1.61980202 0,1.974584 0,2.37983649 L0,35.714188 C0,36.1133516 0.0623313342,36.4643449 0.149964183,36.7896294 L18.3706124,19.0650084 C18.3706124,19.0648731 0.153522208,1.29086419 0.153522208,1.29086419 Z" id="Shape" fill="#00D2FF"></path>
                                <path d="M25.1065036,12.351647 L4.18589334,0.541935671 C3.35184736,0.027200593 2.53076045,-0.103258578 1.83706124,0.0762542936 L19.8307351,17.4266665 C19.8307351,17.4266665 25.1065036,12.351647 25.1065036,12.351647 Z" id="Shape" fill="#00F076"></path>
                                <path d="M32.7688531,16.0197899 L27.4711586,12.9086419 L22.0447348,18.3345256 L27.5718551,23.8809875 L32.7263122,20.8927538 C35.2424958,19.379103 34.3246697,16.9426211 32.7688531,16.0197899 Z" id="Shape" fill="#FFD500"></path>
                                <path d="M1.22470749,38.6346153 C1.94399086,38.8346969 2.80302828,38.7149112 3.67649107,38.1864063 L25.1065036,26.4833461 L19.6210249,21.2992591 C19.6210249,21.2993907 1.22470749,38.6346153 1.22470749,38.6346153 Z" id="Shape" fill="#F3324A"></path>
                            </g>
                        </g>
                    </g>
                </g>
            </g>
        </g>
    </g>
</svg>