<?xml version="1.0" encoding="UTF-8"?>
<svg width="272px" height="582px" viewBox="0 0 272 582" version="1.1" xmlns="http://www.w3.org/2000/svg" xmlns:xlink="http://www.w3.org/1999/xlink">
    <!-- Generator: Sketch 52.6 (67491) - http://www.bohemiancoding.com/sketch -->
    <title>Group 11</title>
    <desc>Created with Sketch.</desc>
    <defs>
        <linearGradient x1="50%" y1="0%" x2="50%" y2="100%" id="linearGradient-1">
            <stop stop-color="#005595" offset="0%"></stop>
            <stop stop-color="#02B5EE" offset="100%"></stop>
        </linearGradient>
    </defs>
    <g id="onboarding-v3" stroke="none" stroke-width="1" fill="none" fill-rule="evenodd">
        <g id="Signup" transform="translate(-496.000000, -272.000000)">
            <g id="Group-12" transform="translate(291.000000, 210.000000)">
                <g id="Group-10" transform="translate(104.000000, 49.000000)">
                    <g id="Group-11" transform="translate(101.000000, 13.000000)">
                        <path d="M21.7930242,-8.80464262e-16 L250.206976,8.80464262e-16 C257.784885,-5.11575092e-16 260.532818,0.789017695 263.303188,2.27062798 C266.073559,3.75223827 268.247762,5.92644115 269.729372,8.69681152 C271.210982,11.4671819 272,14.2151149 272,21.7930242 L272,560.206976 C272,567.784885 271.210982,570.532818 269.729372,573.303188 C268.247762,576.073559 266.073559,578.247762 263.303188,579.729372 C260.532818,581.210982 257.784885,582 250.206976,582 L21.7930242,582 C14.2151149,582 11.4671819,581.210982 8.69681152,579.729372 C5.92644115,578.247762 3.75223827,576.073559 2.27062798,573.303188 C0.789017695,570.532818 3.41050061e-16,567.784885 -5.86976174e-16,560.206976 L5.86976174e-16,21.7930242 C-3.41050061e-16,14.2151149 0.789017695,11.4671819 2.27062798,8.69681152 C3.75223827,5.92644115 5.92644115,3.75223827 8.69681152,2.27062798 C11.4671819,0.789017695 14.2151149,5.11575092e-16 21.7930242,-8.80464262e-16 Z" id="Rectangle" fill="url(#linearGradient-1)"></path>
                        <g id="icon-logo" transform="translate(83.000000, 201.000000)">
                            <g id="icon_logo">
                                <g>
                                    <path d="M83.648168,14.3516406 C92.903043,23.606707 98,35.9116406 98,49 C98,62.0883594 92.903043,74.393293 83.648168,83.648168 C74.393293,92.903043 62.0883594,98 49,98 C35.9114492,98 23.6065156,92.903043 14.3516406,83.648168 C5.09676562,74.393293 0,62.0883594 0,49 C0,35.9116406 5.09676562,23.6065156 14.3516406,14.3516406 C23.6063242,5.09695703 35.9114492,0 49,0 C62.0883594,0 74.393293,5.09695703 83.648168,14.3516406 Z" id="Shape" fill-rule="nonzero"></path>
                                    <path d="M78.2248359,18.2753821 C72.512324,14.1858304 65.5132142,11.7788462 57.9519231,11.7788462 C38.6963029,11.7788462 23.0865385,27.3886106 23.0865385,46.6442308 C23.0865385,65.899851 38.6963029,81.5096154 57.9519231,81.5096154 C71.9625525,81.5096154 84.0429932,73.2454954 89.5845979,61.3259028 C84.3047036,78.7333866 68.132024,91.4038462 49,91.4038462 C25.5810024,91.4038462 6.59615385,72.4189976 6.59615385,49 C6.59615385,25.5810024 25.5810024,6.59615385 49,6.59615385 C60.3280351,6.59615385 70.6185828,11.0381656 78.2248359,18.2753821 Z" id="Combined-Shape" fill="#00B8F1"></path>
                                    <circle id="Oval" fill="#FDD142" cx="52.2980769" cy="41.9326923" r="11.7788462"></circle>
                                    <path d="M28.5336786,42.1304966 C29.5523641,37.4758028 31.8199841,33.5429671 35.3365385,30.3319893 C37.5273535,28.7404356 39.2858689,27.8736058 39.0667805,28.1863541 C36.8170735,31.3978068 35.3365385,34.4159227 35.3365385,38.6346154 C35.3365385,49.5634809 44.1961345,58.4230769 55.125,58.4230769 C66.0538655,58.4230769 74.9134615,49.5634809 74.9134615,38.6346154 C74.9134615,29.7356058 64.9782248,19.3117935 55.3873027,15.7466806 C56.5381195,15.6154856 57.7083031,15.5480769 58.8942308,15.5480769 C75.8079512,15.5480769 89.5192308,29.2593565 89.5192308,46.1730769 C89.5192308,63.0867974 75.8079512,76.7980769 58.8942308,76.7980769 C41.9805103,76.7980769 28.2692308,63.0867974 28.2692308,46.1730769 C28.2692308,44.8026634 28.3592433,43.4532734 28.5336786,42.1304966 Z" id="Combined-Shape" fill="#FDD142"></path>
                                </g>
                            </g>
                        </g>
                    </g>
                </g>
            </g>
        </g>
    </g>
</svg>